<?xml version="1.0" encoding="UTF-8"?><svg id="_レイヤー_" xmlns="http://www.w3.org/2000/svg" viewBox="0 0 190 60.76276"><defs><style>.cls-1{fill:#c0a486;}</style></defs><path class="cls-1" d="m24.17363,57.99046c2.46153-1.13747,7.9354-4.69167,8.33899-4.96243,12.1665-8.15816,27.62348-24.01521,27.62348-38.95881,0-6.28745-2.57322-13.64771-10.47246-13.64771-9.25594.03361-13.88455,1.26805-22.73947,7.61022-4.0682,2.90321-9.13464,7.80226-13.34719,13.89032.52745-1.40568,6.75344-21.92205,6.75344-21.92205L0,3.08051l.19715.9944s11.92711-2.98162,10.63665,1.68924c-2.18852,8.43597-7.50589,24.7078-8.73458,30.8445-.84398,4.21574-.37318,9.06359.76877,12.85814-.75372,2.9845-2.27462,9.03191-2.80271,11.29596l.88719-.02784c.40743-1.84479,1.35159-5.92003,2.64204-9.22778.57097,1.38103,1.23221,2.53482,1.94688,3.32087,3.15285,3.46842,7.40988,5.36025,12.45488,5.66815l7.56766.02497h33.14217l1.58489-2.53066s-26.22677-.10242-36.11738,0m-6.4926-.00928c-2.92721-.20516-5.57213-1.98785-7.23097-3.94338-2.64396-3.117-3.64349-8.60623-2.39112-16.19822,1.10738-6.78545,3.61852-12.16522,7.25337-16.77911C25.38279,7.85635,36.3843,2.05954,43.53109,1.68956c5.28857-.27365,5.86722,9.82371,4.65422,18.59318-1.23957,8.96437-3.51419,21.04414-12.31438,29.01379-3.05299,2.76462-6.81009,5.13077-10.35532,7.18328-3.11124,1.80094-4.46123,1.73789-7.83459,1.50137"/><path class="cls-1" d="m73.78996,27.82783c-.18211-.33158-.43207-.59786-.74732-.79629v-.17539c.94863-.38342,1.91712-.80269,2.90833-1.26069.988-.45832,1.91744-.90351,2.78158-1.33558l.17571.12674c-.0685,1.0981-.11714,2.18373-.14947,3.2559-.03585,1.0725-.05217,2.1578-.05217,3.25623v4.16934c0,1.09842.01632,2.1738.05217,3.22997.03233,1.05618.08097,2.09283.14947,3.10676-.20164-.03264-.39655-.04864-.58826-.04864h-1.17331c-.19171,0-.38663.016-.58474.04864.08129-1.03025.13634-2.0701.16259-3.11955.02272-1.04658.03552-2.11876.03552-3.21718v-8.88468l-2.97009,1.64443Z"/><path class="cls-1" d="m86.19382,25.18262c.73132-.39974,1.62171-.59786,2.67117-.59786.65003,0,1.2642.0845,1.84575.25029.58185.16547,1.0853.43207,1.51129.79918.42247.36422.76013.82222,1.01041,1.37143.25028.5492.37382,1.21524.37382,1.99521,0,.56874-.06497,1.09522-.19811,1.58587-.13347.49064-.32838.96848-.58826,1.43639-.25668.46473-.58185.93584-.97169,1.41048-.39335.47432-.85454.97488-1.38775,1.50777-.31494.31845-.68235.68236-1.0949,1.09843-.41608.41575-.83854.84494-1.26101,1.28661-.42567.43879-.82861.87759-1.21204,1.30966-.38343.4324-.70508.83182-.97169,1.19924h2.36904c1.19923,0,2.25861-.02273,3.18452-.06497.92303-.03905,1.73213-.0877,2.43081-.13666-.08129.36741-.12354.67275-.12354.92303,0,.23396.04224.51656.12354.84814-.89679-.03264-1.78717-.04865-2.66796-.04865h-5.35545c-.89038,0-1.78398.01601-2.68077.04865v-.29894c1.1634-1.14707,2.17381-2.15779,3.03187-3.03186.85454-.87438,1.58266-1.66076,2.18372-2.35943.59785-.69868,1.0853-1.32886,1.45912-1.8944.3735-.56553.66923-1.10163.88719-1.61179.21444-.50696.3607-1.00433.43527-1.49817.0749-.48744.11394-1.01713.11394-1.58267,0-1.23156-.27972-2.14147-.83854-2.73294-.55562-.59146-1.20884-.88718-1.95937-.88718-.52969,0-.98801.09761-1.37143.28933-.38342.18851-.69867.42247-.94896.69867-.25029.273-.442.56874-.57193.88399-.13315.31845-.22756.60106-.27621.84814l-.17539.05184-.87087-1.22517c.52969-.84814,1.16307-1.47192,1.8944-1.87167"/><path class="cls-1" d="m115.97644,40.81989c-.32486.15938-.715.29893-1.173.42247-.45832.12674-.96848.23716-1.53402.33798s-1.15667.14946-1.77085.14946c-1.31638,0-2.53162-.1853-3.64637-.56233-1.11442-.3735-2.07298-.94224-2.88239-1.70908-.8059-.76365-1.43608-1.6998-1.8944-2.80783-.45832-1.10482-.68555-2.36583-.68555-3.77918,0-1.41368.22724-2.67469.68555-3.78271.45832-1.10482,1.09843-2.04066,1.92063-2.80751.82542-.76365,1.80991-1.34551,2.95698-1.74525s2.41448-.60106,3.79552-.60106c1.09522,0,2.09923.11361,3.00594.33798.90671.22403,1.70941.49384,2.40808.81229-.13314.23075-.24036.54921-.32485.94575-.08129.39975-.14947.7342-.19843,1.00081l-.14947.04864c-.16579-.19811-.39974-.42567-.69868-.67243-.29893-.25029-.64971-.49096-1.04945-.72492-.39974-.23396-.84814-.42888-1.3487-.58794-.49705-.15619-1.04626-.23396-1.64443-.23396-.98449,0-1.8944.15587-2.73294.47112-.84142.31845-1.57274.8059-2.19653,1.46232-.62411.65643-1.11154,1.48825-1.46232,2.49578-.3479,1.0072-.52329,2.20004-.52329,3.58108s.17539,2.57354.52329,3.58108c.35078,1.00721.83822,1.83935,1.46232,2.49578.62379.65643,1.35511,1.14387,2.19653,1.45912.83854.31494,1.74845.47432,2.73294.47432.59818,0,1.15059-.07489,1.65755-.22435.50697-.14947.97489-.32805,1.39735-.5361.42568-.20803.8091-.43206,1.15027-.67595.34118-.24035.62731-.45159.86127-.6337l.0973.09761-.22404,1.47192c-.14947.13666-.38694.27972-.7118.43879"/><path class="cls-1" d="m120.26157,32.87126c0-1.41367.22756-2.67436.68555-3.78271.45832-1.10482,1.09843-2.04066,1.92063-2.80751.82542-.76364,1.81022-1.34551,2.95729-1.74525,1.14709-.39942,2.40456-.60106,3.76959-.60106,1.38103,0,2.64525.20164,3.79231.60106,1.15027.39974,2.13508.98161,2.95698,1.74525.82541.76685,1.46585,1.70269,1.92384,2.80751.45511,1.10835.68588,2.36904.68588,3.78271s-.23076,2.67436-.68588,3.77919c-.45799,1.10834-1.09843,2.04418-1.92384,2.80782-.82189.76685-1.80671,1.33558-2.95698,1.70941-1.14707.3767-2.41128.56202-3.79231.56202-1.36503,0-2.62251-.18531-3.76959-.56202-1.14707-.37382-2.13187-.94256-2.95729-1.70941-.82221-.76364-1.46231-1.69948-1.92063-2.80782-.458-1.10483-.68555-2.36552-.68555-3.77919m16.24494,0c0-1.38103-.17538-2.57387-.52329-3.58108-.35078-1.00753-.83502-1.83935-1.45911-2.49578-.6238-.65643-1.35831-1.14387-2.19654-1.46232-.84174-.31526-1.75166-.47112-2.73294-.47112-.96528,0-1.86879.15587-2.70701.47112-.84174.31845-1.57274.8059-2.19685,1.46232-.62378.65643-1.11122,1.48825-1.46231,2.49578-.34758,1.00721-.52329,2.20004-.52329,3.58108s.17571,2.57387.52329,3.58108c.35109,1.00753.83854,1.83935,1.46231,2.49578.62411.65643,1.35511,1.14387,2.19685,1.45912.83823.31526,1.74174.47433,2.70701.47433.98128,0,1.89119-.15907,2.73294-.47433.83823-.31525,1.57274-.80269,2.19654-1.45912.62409-.65643,1.10833-1.48825,1.45911-2.49578.34791-1.00721.52329-2.20004.52329-3.58108"/><path class="cls-1" d="m143.7494,39.07159c.22435.30885.49737.58826.82221.83854.32486.24676.70189.4516,1.13747.61067.43208.15618.91312.23747,1.446.23747.54921,0,1.04306-.09761,1.48505-.28933.44199-.18851.81549-.4484,1.12435-.77357.30532-.32486.54281-.70508.7118-1.14708.16546-.44199.24676-.90991.24676-1.41015,0-.76365-.19492-1.37143-.58475-1.82303-.39014-.44872-.87759-.82222-1.45911-1.12114-.58506-.29894-1.21204-.57513-1.88481-.82542-.67595-.24708-1.30324-.55914-1.88479-.93584-.58185-.37382-1.0693-.85166-1.45913-1.4332-.39335-.58185-.58824-1.36502-.58824-2.34631,0-.69867.12674-1.33558.37381-1.91072.25028-.57193.61418-1.0693,1.0853-1.48504.47432-.41608,1.04627-.73773,1.71261-.97169.66283-.23396,1.41367-.35109,2.24549-.35109.79597,0,1.48826.09761,2.07011.28933.58154.19171,1.12435.48424,1.62138.88399-.14946.28261-.27299.58474-.3735.89998-.10082.31526-.19843.715-.29925,1.19604h-.29894c-.08449-.23075-.1949-.48423-.33797-.76044-.13955-.273-.33127-.52649-.57193-.76045-.24358-.23396-.5297-.42887-.86094-.58825-.33478-.15588-.73454-.23396-1.19924-.23396s-.89359.0749-1.28693.22435c-.38983.14947-.731.3607-1.02033.63371-.29253.27621-.51657.60426-.67595.98768-.15907.38342-.23717.7995-.23717,1.24789,0,.78317.19492,1.39735.58826,1.84575.38983.4484.87726.82861,1.45911,1.13746.58154.30533,1.20885.58154,1.88481.82222.67244.24036,1.29973.53609,1.88479.88719.58154.34758,1.06899.79597,1.45913,1.34519.38983.54921.58473,1.28373.58473,2.19684,0,.76686-.13633,1.49145-.40935,2.17061-.2762.68267-.67595,1.27733-1.19924,1.7875-.52296.50697-1.16338.89679-1.92032,1.16979-.75724.27621-1.61849.41255-2.58346.41255-1.03345,0-1.86879-.13634-2.50889-.41255-.64011-.273-1.17621-.58506-1.60859-.93583.14946-.38023.25348-.7246.31204-1.03345.05538-.30885.11043-.70187.16259-1.18612h.29894c.13315.29893.31173.60457.53609.90991"/><path class="cls-1" d="m162.74054,30.82397c1.1698,2.22917,2.39815,4.51691,3.6787,6.86322.16546-.31525.40935-.77005.72459-1.36151.31525-.58826.68236-1.26741,1.09843-2.03106.41575-.76685.86094-1.59546,1.33557-2.48585.47432-.88719.95537-1.7907,1.446-2.70701.49065-.91311.97809-1.81342,1.46233-2.69389.48104-.88399.92943-1.7062,1.3455-2.47305h.32486c.1821,1.59866.3543,3.14228.51337,4.63053.15618,1.48857.31845,2.9541.48424,4.39369.16579,1.43961.33476,2.85968.50055,4.26664.16548,1.40727.34758,2.7979.54921,4.17925-.20164-.03264-.39653-.04896-.58824-.04896h-1.17332c-.1882,0-.38663.01632-.58475.04896-.1821-2.21317-.36709-4.35785-.54921-6.43755-.1821-2.08003-.40935-4.20199-.67275-6.36298h-.05184c-1.14707,2.09603-2.27495,4.17925-3.37976,6.24904-1.10804,2.0733-2.161,4.24071-3.15861,6.50253h-.22435c-.99761-2.09603-2.04386-4.19526-3.13236-6.30089-1.08883-2.10595-2.18406-4.25703-3.28215-6.45067h-.04897c-.11682,1.03025-.24676,2.1482-.38663,3.35384-.14305,1.20884-.26979,2.39815-.38663,3.57115-.11713,1.17332-.21795,2.27814-.29892,3.31799-.08451,1.03985-.12674,1.8944-.12674,2.55755-.26661-.03264-.55593-.04896-.87438-.04896-.31527,0-.60746.01632-.87087.04896.21443-1.34551.43878-2.76878.67275-4.26695s.45832-3.00274.67275-4.51691c.21763-1.51449.41575-3.00594.60106-4.48138.18212-1.47192.34119-2.87248.47465-4.20486h.42214c1.1474,2.36231,2.3108,4.65998,3.48378,6.88915"/><path class="cls-1" d="m181.10252,27.45414c-.03905-1.06258-.08449-2.12835-.13635-3.19445.75054.03585,1.49466.06177,2.23559.08769.73772.02624,1.48503.03905,2.23236.03905.74764,0,1.48857-.0128,2.21957-.03905.73452-.02592,1.47544-.05184,2.22277-.08769-.04864.25028-.07456.50056-.07456.75084,0,.24676.02592.49705.07456.74733-.53288-.03265-1.02033-.06497-1.45913-.10082-.44199-.03233-.90638-.06497-1.39734-.0973-.49065-.03585-1.02994-.06528-1.61179-.08801-.58154-.02592-1.28021-.03873-2.09603-.03873-.016.53289-.03551,1.03985-.06177,1.52409-.02592.48072-.03872,1.02994-.03872,1.64732,0,.64683.00639,1.28054.0128,1.89472.00992.61738.01313,1.08209.01313,1.39735.731,0,1.39062-.00672,1.97248-.02273.58154-.01632,1.11476-.03904,1.59546-.06497.48426-.02272.92945-.04896,1.33559-.07489.40966-.02273.79629-.05185,1.16019-.0877-.04864.25029-.07458.51016-.07458.77677,0,.24676.02594.49705.07458.74733-.43206-.04865-.93584-.0909-1.50777-.12355-.57513-.03585-1.15027-.05537-1.7222-.06497-.57547-.0064-1.11476-.01632-1.62172-.02272-.51016-.00992-.91312-.01313-1.21204-.01313,0,.14947-.0032.31205-.01313.48744-.00641.17219-.0128.39335-.0128.65963v2.46985c0,.94896.00639,1.73213.0128,2.34631.00992.61739.02272,1.0821.03905,1.39736h1.74492c.63372,0,1.25462-.00992,1.86207-.03585.60459-.02593,1.17973-.05857,1.71902-.10082.54281-.04225,1.01073-.10402,1.41047-.18499-.03233.11361-.05184.24356-.06177.38663-.00641.13953-.0128.2698-.0128.38662,0,.26661.02592.48105.07456.64683-.74731-.03264-1.49144-.04896-2.23236-.04896h-4.53003c-.74733,0-1.50459.01632-2.27143.04896.05186-1.06289.0973-2.12547.13635-3.18164.04225-1.05586.06497-2.13156.06497-3.22998v-4.29287c0-1.09843-.02272-2.18053-.06497-3.2463"/></svg>