<svg xmlns="http://www.w3.org/2000/svg" width="22.149" height="18" viewBox="0 0 22.149 18">
  <path id="iconmonstr-twitter-1" d="M22.149,4.379a9.073,9.073,0,0,1-2.61.715,4.552,4.552,0,0,0,2-2.514,9.1,9.1,0,0,1-2.886,1.1,4.547,4.547,0,0,0-7.744,4.144A12.9,12.9,0,0,1,1.542,3.08,4.55,4.55,0,0,0,2.948,9.147,4.525,4.525,0,0,1,.891,8.578a4.548,4.548,0,0,0,3.644,4.513,4.555,4.555,0,0,1-2.053.078,4.548,4.548,0,0,0,4.245,3.155A9.137,9.137,0,0,1,0,18.207a12.864,12.864,0,0,0,6.966,2.041A12.852,12.852,0,0,0,19.882,6.731,9.252,9.252,0,0,0,22.149,4.379Z" transform="translate(0 -2.248)" fill="#5d737e"/>
</svg>
