<svg xmlns="http://www.w3.org/2000/svg" width="18.891" height="18" viewBox="0 0 18.891 18">
  <g id="グループ化_80" data-name="グループ化 80" transform="translate(-1152 -3067)">
    <path id="iconmonstr-line-1" d="M18.891,8.231c0-4.226-4.237-7.665-9.446-7.665S0,4.005,0,8.231c0,3.789,3.36,6.963,7.9,7.563.308.066.726.2.832.466a1.944,1.944,0,0,1,.031.854l-.135.808c-.042.239-.19.934.818.509a30.486,30.486,0,0,0,7.421-5.484,6.82,6.82,0,0,0,2.025-4.717ZM3.945,6.189a.184.184,0,0,1,.184.184V9.642h1.8a.183.183,0,0,1,.183.183v.663a.184.184,0,0,1-.183.184H3.282a.183.183,0,0,1-.127-.051h0l0,0h0l0,0a.184.184,0,0,1-.051-.127V6.373a.184.184,0,0,1,.183-.184h.663Zm11.8,0a.184.184,0,0,1,.183.184v.663a.184.184,0,0,1-.183.184h-1.8v.7h1.8a.184.184,0,0,1,.183.184v.663a.184.184,0,0,1-.183.184h-1.8v.7h1.8a.184.184,0,0,1,.183.183v.663a.184.184,0,0,1-.183.184H13.1a.184.184,0,0,1-.128-.051l0,0,0,0a.185.185,0,0,1-.052-.127V6.373a.184.184,0,0,1,.051-.127l0,0,0,0a.185.185,0,0,1,.128-.052h2.647Zm-8.219,0a.184.184,0,0,1,.184.183v4.116a.184.184,0,0,1-.184.183H6.864a.184.184,0,0,1-.184-.183V6.373a.184.184,0,0,1,.184-.183Zm1.674,0h.034l.01,0,.006,0,.011,0,.006,0,.01,0,.006,0,.01.006.006,0,.009.007,0,0,.01.009,0,0,.011.011,0,0,.014.018L11.24,8.818V6.373a.184.184,0,0,1,.184-.183h.662a.183.183,0,0,1,.184.183v4.116a.184.184,0,0,1-.184.183h-.662l-.047-.006h0l-.012,0-.006,0-.009,0-.009,0-.006,0-.011-.007,0,0-.047-.046L9.385,8.044v2.445a.184.184,0,0,1-.184.183H8.539a.184.184,0,0,1-.184-.183V6.373a.184.184,0,0,1,.184-.183H9.2Z" transform="translate(1152 3066.434)" fill="#5d737e" fill-rule="evenodd"/>
  </g>
</svg>
