<?xml version="1.0" encoding="UTF-8"?><svg id="_レイヤー_1" xmlns="http://www.w3.org/2000/svg" viewBox="0 0 672.2628 445.6142"><defs><style>.cls-1{fill:#fff;}</style></defs><path class="cls-1" d="m241.82545,214.82727c-.29199-.5308-.69033-.95524-1.19405-1.27333v-.27942c1.51311-.61008,3.05812-1.27913,4.63697-2.0091s3.05812-1.43963,4.4378-2.12995l.27845.19917c-.10635,1.75095-.18563,3.48256-.23881,5.19387s-.07928,3.44292-.07928,5.19387v6.64704c0,1.75095.0261,3.46903.07928,5.15423s.13246,3.33657.23881,4.95506c-.31809-.05318-.63038-.07928-.93494-.07928h-1.87084c-.30552,0-.61685.0261-.93494.07928.13246-1.6446.21851-3.3037.25815-4.97537s.05994-3.38298.05994-5.13393v-14.16907l-4.73656,2.62691Z"/><path class="cls-1" d="m262.34384,210.60797c1.16698-.63618,2.58727-.95524,4.25894-.95524,1.03452,0,2.01587.13342,2.945.39834.92817.26588,1.73161.69033,2.40744,1.27333.67679.58397,1.21435,1.31394,1.61269,2.18893.39737.87596.59654,1.93755.59654,3.18478,0,.90206-.10635,1.74515-.31809,2.52732-.21271.78314-.52403,1.54598-.9359,2.28851-.41091.74253-.92913,1.49184-1.55178,2.24887-.62361.75607-1.36035,1.55855-2.20923,2.40744-.50372.50469-1.0877,1.08866-1.75095,1.75095-.66325.66422-1.33327,1.34778-2.01006,2.0497-.67679.70386-1.31974,1.39999-1.92982,2.09031-.61104.69033-1.1283,1.32651-1.55275,1.91048h3.78132c1.91048,0,3.60149-.03287,5.07495-.09958,1.4725-.06575,2.76613-.13923,3.87994-.21947-.13246.58397-.19917,1.07513-.19917,1.4725,0,.37223.06671.82278.19917,1.35358-1.43286-.05318-2.85218-.07928-4.25894-.07928h-8.53721c-1.41932,0-2.84542.0261-4.27827.07928v-.47762c1.8573-1.8312,3.46903-3.44292,4.83614-4.83614,1.36615-1.39225,2.52732-2.64625,3.48256-3.76101.95524-1.1138,1.73065-2.12222,2.32815-3.02428.59654-.90206,1.06739-1.75772,1.41256-2.56696s.5772-1.60592.69709-2.3881c.11892-.78314.17887-1.62526.17887-2.52732,0-1.96366-.44475-3.41682-1.33327-4.35852-.88949-.9417-1.93078-1.41256-3.12483-1.41256-.84889,0-1.57885.15276-2.18893.45732-.61008.30552-1.1138.67679-1.51214,1.11477-.39834.43701-.70386.90883-.9156,1.41256-.21271.50469-.35773.95524-.43798,1.35358l-.27845.07928-1.39322-1.95012c.84889-1.35358,1.8573-2.34846,3.02525-2.98561Z"/><path class="cls-1" d="m307.14375,235.54379c-.51726.25235-1.14087.47762-1.87084.67679-.72997.1982-1.54598.37804-2.44804.5366-.90206.15953-1.84377.23881-2.82511.23881-2.09708,0-4.03366-.29875-5.81072-.8953-1.77802-.59654-3.31047-1.50537-4.59733-2.72649-1.28783-1.22015-2.29528-2.71296-3.02525-4.47744s-1.09446-3.77455-1.09446-6.03019c0-2.25468.3645-4.26474,1.09446-6.02923s1.75192-3.25729,3.06489-4.47744c1.31394-1.22015,2.88602-2.14929,4.71625-2.78644,1.8312-.63715,3.84706-.95524,6.04953-.95524,1.75192,0,3.35011.17887,4.7965.53756,1.44543.35773,2.72649.78991,3.8403,1.29363-.21271.37127-.3848.87499-.51726,1.51214s-.23881,1.16794-.31809,1.59239l-.23881.07928c-.26588-.31809-.63715-.67679-1.11477-1.07513-.47762-.39737-1.03452-.78217-1.67167-1.15344-.63618-.37127-1.35261-.68356-2.14929-.9359-.79571-.25138-1.67167-.37804-2.62691-.37804-1.56532,0-3.01848.25235-4.35756.75607-1.34004.50469-2.50799,1.28107-3.50287,2.32912s-1.77125,2.37456-2.32815,3.97952c-.5569,1.60592-.83632,3.50964-.83632,5.71113,0,2.20343.27942,4.10714.83632,5.7121s1.33327,2.93146,2.32815,3.97952c.99488,1.04902,2.16283,1.82443,3.50287,2.32815,1.33908.50469,2.79224.75704,4.35756.75704.95524,0,1.837-.11989,2.64721-.3587.80925-.23881,1.55178-.52306,2.22857-.85565.67679-.33163,1.28687-.68936,1.8312-1.07416.54337-.3848,1.00068-.7232,1.37292-1.01518l.15953.15953-.3587,2.34749c-.23881.21271-.61685.44475-1.13411.69709Z"/><path class="cls-1" d="m315.13953,222.86656c0-2.25468.3645-4.26474,1.09446-6.02923.729-1.76449,1.75095-3.25729,3.06489-4.47744,1.31297-1.22015,2.88506-2.14929,4.71625-2.78644,1.83023-.63715,3.83353-.95524,6.00989-.95524,2.2015,0,4.21833.31809,6.04953.95524s3.40328,1.56628,4.71625,2.78644c1.31394,1.22015,2.33492,2.71296,3.06489,4.47744.729,1.76449,1.09446,3.77455,1.09446,6.02923,0,2.25564-.36547,4.26571-1.09446,6.03019-.72997,1.76449-1.75095,3.25729-3.06489,4.47744-1.31297,1.22112-2.88506,2.12995-4.71625,2.72649s-3.84803.8953-6.04953.8953c-2.17636,0-4.17966-.29875-6.00989-.8953-1.8312-.59654-3.40328-1.50537-4.71625-2.72649-1.31394-1.22015-2.33589-2.71296-3.06489-4.47744-.72997-1.76449-1.09446-3.77455-1.09446-6.03019Zm25.91039,0c0-2.2015-.27942-4.10521-.83632-5.71113-.5569-1.60496-1.33327-2.93146-2.32815-3.97952s-2.16283-1.82443-3.50287-2.32912c-1.34004-.50372-2.79224-.75607-4.35756-.75607-1.53921,0-2.97884.25235-4.31888.75607-1.34004.50469-2.50702,1.28107-3.5019,2.32912-.99585,1.04806-1.77125,2.37456-2.32912,3.97952-.5569,1.60592-.83535,3.50964-.83535,5.71113,0,2.20343.27845,4.10714.83535,5.7121.55787,1.60496,1.33327,2.93146,2.32912,3.97952.99488,1.04902,2.16186,1.82443,3.5019,2.32815,1.34004.50469,2.77967.75704,4.31888.75704,1.56532,0,3.01751-.25235,4.35756-.75704,1.34004-.50372,2.50799-1.27913,3.50287-2.32815.99488-1.04806,1.77125-2.37456,2.32815-3.97952s.83632-3.50867.83632-5.7121Z"/><path class="cls-1" d="m354.37784,232.75735c.3587.49116.79668.93494,1.31394,1.33327s1.12057.7232,1.81089.97554c.68936.25235,1.45896.37804,2.30882.37804.87499,0,1.66393-.15276,2.3678-.45828.70289-.30456,1.29944-.71643,1.79059-1.23369s.86919-1.12734,1.13507-1.83023c.26491-.70289.39737-1.45316.39737-2.24887,0-1.22015-.31229-2.18893-.93494-2.90536-.62361-.71643-1.39999-1.31394-2.32815-1.79156-.92913-.47762-1.93078-.9156-3.00494-1.31297-1.07513-.39834-2.07678-.89626-3.00494-1.4928-.92913-.59654-1.70551-1.35938-2.32912-2.28851-.62361-.92817-.93494-2.17539-.93494-3.74168,0-1.1138.19917-2.12899.59751-3.04458.39737-.9156.97458-1.70454,1.73065-2.3678s1.6649-1.18051,2.72649-1.55275c1.06063-.37127,2.25468-.5569,3.58215-.5569,1.27333,0,2.37456.15276,3.3037.45732.92817.30552,1.79059.77637,2.58727,1.41352-.23881.45152-.43798.92913-.59751,1.43286s-.31809,1.14087-.47762,1.91048h-.47762c-.13342-.37127-.31229-.77637-.53756-1.21435s-.5308-.84212-.91463-1.21339c-.38577-.37127-.84309-.68356-1.37388-.9359-.5308-.25138-1.16794-.37804-1.91048-.37804s-1.42609.11989-2.0497.3587-1.16794.5772-1.63106,1.01422c-.46505.43798-.82278.96201-1.07513,1.57208-.25235.61104-.37804,1.2743-.37804,1.99073,0,1.24723.31132,2.22857.93494,2.945s1.39999,1.32071,2.32912,1.81089c.92817.49116,1.92982.92913,3.00494,1.31394,1.07416.3848,2.07581.85565,3.00494,1.41256.92817.5569,1.70454,1.27333,2.32815,2.14929.62265.87596.93494,2.04294.93494,3.5019,0,1.22112-.21851,2.37553-.65649,3.46323s-1.07513,2.03617-1.91048,2.84542c-.83632.81021-1.8573,1.43286-3.06489,1.87084s-2.5805.65649-4.11875.65649c-1.64556,0-2.97884-.21851-4.00079-.65649-1.02098-.43798-1.87664-.93494-2.56696-1.4928.23881-.61008.40414-1.16021.49792-1.65137.09282-.49116.17887-1.12057.25815-1.89018h.47762c.21271.47762.49792.96201.85565,1.4522Z"/><path class="cls-1" d="m386.27492,219.60347c1.87084,3.55604,3.82676,7.20394,5.8697,10.94465.26491-.50372.65068-1.22692,1.15441-2.16863s1.0877-2.0236,1.75192-3.24375c.66229-1.22015,1.37292-2.54086,2.12899-3.96018s1.52568-2.85895,2.30785-4.31888c.78314-1.45896,1.55855-2.89182,2.32912-4.29858.76864-1.40579,1.48507-2.71876,2.14929-3.93988h.51726c.29102,2.54763.56367,5.00921.81601,7.3828.25138,2.37553.51049,4.71045.77541,7.00477.26491,2.29625.5308,4.56446.79668,6.80657.26491,2.24211.5569,4.46391.87499,6.66637-.31809-.05318-.63038-.07928-.93494-.07928h-1.87084c-.30552,0-.61685.0261-.93494.07928-.29295-3.52897-.58397-6.95159-.87596-10.26883-.29199-3.31627-.65068-6.69925-1.07416-10.14894h-.08025c-1.83023,3.34334-3.62856,6.66637-5.39304,9.97007s-3.44196,6.76016-5.03435,10.36841h-.35773c-1.59239-3.34334-3.25729-6.69345-4.99567-10.05032-1.73741-3.35591-3.48256-6.7853-5.23351-10.28816h-.07928c-.1866,1.64556-.39157,3.42939-.61685,5.3534-.22624,1.92402-.43218,3.82096-.61685,5.6918-.1866,1.86987-.34516,3.63533-.47762,5.29346-.13342,1.65813-.19917,3.01848-.19917,4.07911-.42541-.05318-.88949-.07928-1.39322-.07928-.50469,0-.96878.0261-1.39322.07928.34516-2.14929.70289-4.4175,1.07513-6.8056.37127-2.3881.729-4.78973,1.07416-7.20394.3442-2.4142.66325-4.7965.95524-7.14496.29199-2.34749.54337-4.58283.75607-6.70601h.67679c1.8312,3.76778,3.68173,7.43018,5.55257,10.98526Z"/><path class="cls-1" d="m417.44203,214.22976c-.06575-1.69777-.13923-3.39555-.21851-5.09429,1.19405.05414,2.38133.09958,3.56185.13923s2.36876.05994,3.56281.05994,2.3736-.0203,3.54154-.05994,2.34846-.08508,3.54251-.13923c-.07928.39834-.11892.79668-.11892,1.19405,0,.39834.03964.79668.11892,1.19405-.84985-.05318-1.62526-.10539-2.32815-.15953-.70386-.05221-1.4464-.10539-2.22857-.15856-.78314-.05318-1.6388-.09958-2.56793-.13923s-2.04294-.05994-3.34334-.05994c-.0261.84985-.05898,1.65813-.09862,2.42774-.04061.76961-.05994,1.64556-.05994,2.62691,0,1.03452.0058,2.0439.01934,3.02525s.0203,1.72485.0203,2.22857c1.16698,0,2.21503-.01354,3.14417-.03964.92817-.0261,1.77706-.05994,2.54763-.09958.76864-.03964,1.4783-.07928,2.12899-.11989.64972-.03964,1.26656-.08508,1.85054-.13923-.07928.39834-.11892.81021-.11892,1.23369,0,.39834.03964.79668.11892,1.19405-.69033-.07928-1.49184-.14503-2.40744-.1982s-1.8312-.08605-2.7468-.09958-1.77802-.0261-2.5863-.04061c-.81021-.01257-1.45316-.01934-1.93078-.01934,0,.23881-.00677.49696-.0203.77637-.01354.27845-.01934.63038-.01934,1.05482v3.93988c0,1.51214.0058,2.76033.01934,3.74168s.03384,1.72485.05994,2.22857h2.78644c1.00745,0,1.99556-.0203,2.9653-.05994.96781-.03964,1.88341-.09282,2.74583-.15953.86242-.06575,1.61173-.16533,2.24887-.29779-.05318.18563-.08605.39157-.09958.61685s-.0203.43121-.0203.61685c0,.42444.04061.76961.11989,1.03452-1.19405-.05318-2.3823-.07928-3.56185-.07928h-7.22424c-1.19405,0-2.40163.0261-3.62179.07928.07928-1.69777.15276-3.38878.21851-5.07495.06671-1.68424.09958-3.40232.09958-5.15423v-6.84524c0-1.75095-.03287-3.4758-.09958-5.17454Z"/></svg>